<svg width="1200" height="675" viewBox="0 0 1200 675" xmlns="http://www.w3.org/2000/svg">
  <rect width="1200" height="675" fill="#f4eee4"/>
  <g stroke="#1c1810" stroke-opacity="0.15" stroke-width="1.5">
    <line x1="300" y1="200" x2="500" y2="200"/>
    <line x1="500" y1="200" x2="500" y2="340"/>
    <line x1="500" y1="340" x2="720" y2="340"/>
    <line x1="720" y1="340" x2="720" y2="150"/>
    <line x1="300" y1="450" x2="620" y2="450"/>
    <line x1="620" y1="450" x2="620" y2="560"/>
    <line x1="900" y1="450" x2="900" y2="220"/>
    <line x1="900" y1="220" x2="1020" y2="220"/>
  </g>
  <g fill="#ae4b25">
    <circle cx="300" cy="200" r="7"/>
    <circle cx="720" cy="150" r="7"/>
    <circle cx="300" cy="450" r="7"/>
    <circle cx="620" cy="560" r="7"/>
    <circle cx="1020" cy="220" r="7"/>
  </g>
  <circle cx="620" cy="330" r="90" fill="#ae4b25" fill-opacity="0.85"/>
  <circle cx="500" cy="200" r="6" fill="#1c1810" fill-opacity="0.3"/>
  <circle cx="720" cy="340" r="6" fill="#1c1810" fill-opacity="0.3"/>
  <circle cx="620" cy="450" r="6" fill="#1c1810" fill-opacity="0.3"/>
  <circle cx="900" cy="450" r="6" fill="#1c1810" fill-opacity="0.3"/>
  <circle cx="900" cy="220" r="6" fill="#1c1810" fill-opacity="0.3"/>
</svg>
