<svg width="1200" height="675" viewBox="0 0 1200 675" xmlns="http://www.w3.org/2000/svg">
  <rect width="1200" height="675" fill="#f4eee4"/>
  <path d="M0 420 C 200 350, 300 480, 500 420 S 800 340, 1000 430 S 1200 400, 1200 400 V675 H0 Z" fill="#ae4b25" fill-opacity="0.16"/>
  <path d="M0 500 C 220 440, 320 560, 540 500 S 820 430, 1040 510 S 1200 480, 1200 480 V675 H0 Z" fill="#ae4b25" fill-opacity="0.28"/>
  <path d="M0 570 C 240 530, 340 620, 560 570 S 840 520, 1060 580 S 1200 560, 1200 560 V675 H0 Z" fill="#ae4b25" fill-opacity="0.85"/>
  <g fill="none" stroke="#1c1810" stroke-opacity="0.14" stroke-width="1.5">
    <path d="M120 120 q40 -50 80 0 t80 0"/>
    <path d="M900 90 q40 -50 80 0 t80 0"/>
    <path d="M500 60 q40 -50 80 0 t80 0"/>
  </g>
</svg>
